<svg xmlns="http://www.w3.org/2000/svg" width="108" height="109" fill="none"><path fill="#000" d="M47.688 31.5c-4.126 0-7.741 1.694-10.044 4.285-2.303 2.59-3.363 5.884-3.363 9.121s1.06 6.53 3.363 9.121 5.919 4.285 10.044 4.285h12.374c2.063 0 3.088.626 3.879 1.516s1.278 2.237 1.278 3.64-.487 2.752-1.278 3.641-1.816 1.516-3.879 1.516h-24.75a4 4 0 0 0-.96.127 4 4 0 0 0-.273.083q-.344.109-.663.274-.129.063-.251.135a4 4 0 0 0-.769.59L22.084 80.146 0 102.229v5.833h5.833l22.083-22.083 9.106-9.104h23.04c4.126 0 7.741-1.694 10.044-4.285 2.303-2.59 3.363-5.884 3.363-9.121s-1.06-6.53-3.363-9.121-5.918-4.285-10.043-4.285H47.687c-2.062 0-3.087-.626-3.878-1.516s-1.278-2.237-1.278-3.64.487-2.752 1.278-3.641 1.816-1.516 3.879-1.516h22.687l6.188-8.25z"/></svg>