<svg xmlns="http://www.w3.org/2000/svg" width="108" height="108" fill="none"><path fill="#004F55" d="M47.813 31.313c-4.126 0-7.741 1.694-10.044 4.285-2.303 2.59-3.363 5.884-3.363 9.12 0 3.238 1.06 6.531 3.363 9.122 2.303 2.59 5.919 4.285 10.044 4.285h12.374c2.063 0 3.088.626 3.879 1.516s1.278 2.237 1.278 3.64-.487 2.751-1.278 3.64-1.816 1.516-3.879 1.516h-24.75a4 4 0 0 0-.96.127 4 4 0 0 0-.273.083q-.344.108-.663.275-.129.063-.251.134a4 4 0 0 0-.769.59L22.209 79.959.125 102.042v5.833h5.833l22.083-22.083 9.106-9.105h23.04c4.126 0 7.741-1.694 10.044-4.285 2.303-2.59 3.363-5.884 3.363-9.12 0-3.238-1.06-6.531-3.363-9.122-2.303-2.59-5.918-4.285-10.043-4.285H47.812c-2.062 0-3.087-.626-3.878-1.516s-1.278-2.237-1.278-3.64.487-2.751 1.278-3.64 1.816-1.517 3.879-1.517H70.5l6.188-8.25H47.813"/></svg>