<?xml version="1.0" encoding="UTF-8"?>
<svg width="1024px" height="1024px" viewBox="0 0 1024 1024" version="1.1" xmlns="http://www.w3.org/2000/svg" xmlns:xlink="http://www.w3.org/1999/xlink">
    <title>App Icon Square</title>
    <defs>
        <linearGradient x1="100%" y1="0%" x2="50%" y2="100%" id="linearGradient-1">
            <stop stop-color="#FDD68A" offset="0%"></stop>
            <stop stop-color="#FBA123" offset="73.3820037%"></stop>
            <stop stop-color="#F57E0B" offset="100%"></stop>
        </linearGradient>
    </defs>
    <g id="App-Icon-Square" stroke="none" stroke-width="1" fill="none" fill-rule="evenodd">
        <rect id="App-Icon-1024x1024" fill="url(#linearGradient-1)" x="0" y="0" width="1024" height="1024"></rect>
        <g id="master-square" transform="translate(0, 194)" fill="#000000" fill-rule="nonzero">
            <path d="M399.62963,0 C338.148333,0 284.256971,25.2543408 249.933627,63.8680927 C215.610307,102.481845 199.814815,151.569067 199.814815,199.814815 C199.814815,248.060555 215.610307,297.147785 249.933627,335.761537 C284.256971,374.375289 338.148333,399.62963 399.62963,399.62963 L584.074074,399.62963 C614.814723,399.62963 630.090442,408.958784 641.878071,422.21987 C653.665724,435.480957 660.925926,455.56077 660.925926,476.481481 C660.925926,497.402193 653.665724,517.482006 641.878071,530.743093 C630.090442,544.004179 614.814723,553.333333 584.074074,553.333333 L461.111111,553.333333 L215.185185,553.333333 C210.35564,553.397994 205.550538,554.031536 200.869276,555.220853 C199.499536,555.585374 198.142811,555.997149 196.801531,556.45544 C193.395391,557.530518 190.089415,558.900371 186.921118,560.549453 C185.648804,561.173998 184.398463,561.842347 183.172339,562.553304 C179.021377,565.023795 175.176029,567.974876 171.715856,571.345486 L18.0121528,725.04919 L0,743.061343 L0,830 L86.9386574,830 L104.95081,811.987847 L240.65737,676.296296 L461.111111,676.296296 L584.074074,676.296296 C645.555371,676.296296 699.446733,651.042009 733.770077,612.428204 C768.093397,573.814452 783.888889,524.72723 783.888889,476.481481 C783.888889,428.235733 768.093397,379.148511 733.770077,340.534759 C699.446733,301.921008 645.555371,276.666667 584.074074,276.666667 L399.62963,276.666667 C368.888981,276.666667 353.613261,267.337513 341.825632,254.076426 C330.03798,240.815339 322.777778,220.735534 322.777778,199.814815 C322.777778,178.894096 330.03798,158.81429 341.825632,145.553204 C353.613261,132.292117 368.888981,122.962963 399.62963,122.962963 L553.333333,122.962963 L584.074074,122.962963 L737.777778,122.962963 L830,0 L584.074074,0 L553.333333,0 L399.62963,0 Z" id="path4"></path>
        </g>
    </g>
</svg>